<svg width="35" height="35" viewBox="0 0 35 35" fill="none" xmlns="http://www.w3.org/2000/svg">
<rect width="35" height="35" rx="17.5" fill="white"/>
<g filter="url(#filter0_d_25_10)">
<path d="M7.876 17.338V17.692C7.876 17.996 7.932 18.226 8.044 18.382C8.156 18.534 8.334 18.61 8.578 18.61C8.818 18.61 9.076 18.548 9.352 18.424L9.502 18.838C9.174 18.986 8.856 19.06 8.548 19.06C8.164 19.06 7.872 18.938 7.672 18.694C7.472 18.45 7.372 18.116 7.372 17.692V17.338C7.372 16.914 7.472 16.58 7.672 16.336C7.872 16.092 8.164 15.97 8.548 15.97C8.692 15.97 8.84 15.99 8.992 16.03C9.148 16.066 9.304 16.118 9.46 16.186L9.31 16.606C9.178 16.55 9.05 16.506 8.926 16.474C8.806 16.442 8.69 16.426 8.578 16.426C8.334 16.426 8.156 16.504 8.044 16.66C7.932 16.812 7.876 17.038 7.876 17.338ZM12.6236 17.332V17.692C12.6236 18.116 12.5136 18.45 12.2936 18.694C12.0776 18.938 11.7676 19.06 11.3636 19.06C10.9636 19.06 10.6536 18.938 10.4336 18.694C10.2136 18.45 10.1036 18.116 10.1036 17.692V17.332C10.1036 16.916 10.2116 16.586 10.4276 16.342C10.6476 16.094 10.9596 15.97 11.3636 15.97C11.7676 15.97 12.0776 16.094 12.2936 16.342C12.5136 16.586 12.6236 16.916 12.6236 17.332ZM12.1136 17.332C12.1136 17.048 12.0496 16.826 11.9216 16.666C11.7936 16.502 11.6076 16.42 11.3636 16.42C11.1236 16.42 10.9376 16.502 10.8056 16.666C10.6776 16.826 10.6136 17.048 10.6136 17.332V17.692C10.6136 17.988 10.6776 18.216 10.8056 18.376C10.9376 18.536 11.1236 18.616 11.3636 18.616C11.6076 18.616 11.7936 18.536 11.9216 18.376C12.0496 18.216 12.1136 17.988 12.1136 17.692V17.332ZM15.0057 16.432C14.8937 16.432 14.7617 16.46 14.6097 16.516C14.4617 16.572 14.2817 16.686 14.0697 16.858V19H13.5777V16.03H14.0457V16.444C14.2577 16.264 14.4497 16.14 14.6217 16.072C14.7977 16.004 14.9657 15.97 15.1257 15.97C15.4017 15.97 15.6117 16.058 15.7557 16.234C15.9037 16.406 15.9777 16.652 15.9777 16.972V19H15.4857V17.044C15.4857 16.636 15.3257 16.432 15.0057 16.432ZM18.4934 16.432C18.3814 16.432 18.2494 16.46 18.0974 16.516C17.9494 16.572 17.7694 16.686 17.5574 16.858V19H17.0654V16.03H17.5334V16.444C17.7454 16.264 17.9374 16.14 18.1094 16.072C18.2854 16.004 18.4534 15.97 18.6134 15.97C18.8894 15.97 19.0994 16.058 19.2434 16.234C19.3914 16.406 19.4654 16.652 19.4654 16.972V19H18.9734V17.044C18.9734 16.636 18.8134 16.432 18.4934 16.432ZM22.7072 18.826C22.5272 18.914 22.3472 18.974 22.1672 19.006C21.9872 19.042 21.8212 19.06 21.6692 19.06C21.2412 19.06 20.9212 18.938 20.7092 18.694C20.5012 18.45 20.3972 18.116 20.3972 17.692V17.332C20.3972 16.92 20.5012 16.59 20.7092 16.342C20.9212 16.094 21.2192 15.97 21.6032 15.97C21.8072 15.97 21.9932 16.012 22.1612 16.096C22.3332 16.176 22.4692 16.3 22.5692 16.468C22.6732 16.632 22.7252 16.844 22.7252 17.104C22.7252 17.272 22.7012 17.464 22.6532 17.68H20.8832V17.692C20.8832 17.996 20.9452 18.226 21.0692 18.382C21.1972 18.538 21.4012 18.616 21.6812 18.616C21.8092 18.616 21.9492 18.6 22.1012 18.568C22.2572 18.536 22.4092 18.486 22.5572 18.418L22.7072 18.826ZM21.6032 16.402C21.3712 16.402 21.1952 16.478 21.0752 16.63C20.9592 16.778 20.8952 16.988 20.8832 17.26H22.2272C22.2392 17.188 22.2452 17.12 22.2452 17.056C22.2452 16.832 22.1812 16.668 22.0532 16.564C21.9292 16.456 21.7792 16.402 21.6032 16.402ZM25.2086 19L24.4706 17.842L23.7626 19H23.2406L24.2246 17.464L23.3126 16.03H23.8586L24.5126 17.068L25.1546 16.03H25.6706L24.7646 17.452L25.7486 19H25.2086Z" fill="black"/>
</g>
<defs>
<filter id="filter0_d_25_10" x="3.372" y="15.97" width="26.3766" height="11.0901" filterUnits="userSpaceOnUse" color-interpolation-filters="sRGB">
<feFlood flood-opacity="0" result="BackgroundImageFix"/>
<feColorMatrix in="SourceAlpha" type="matrix" values="0 0 0 0 0 0 0 0 0 0 0 0 0 0 0 0 0 0 127 0" result="hardAlpha"/>
<feOffset dy="4"/>
<feGaussianBlur stdDeviation="2"/>
<feComposite in2="hardAlpha" operator="out"/>
<feColorMatrix type="matrix" values="0 0 0 0 0 0 0 0 0 0 0 0 0 0 0 0 0 0 0.25 0"/>
<feBlend mode="normal" in2="BackgroundImageFix" result="effect1_dropShadow_25_10"/>
<feBlend mode="normal" in="SourceGraphic" in2="effect1_dropShadow_25_10" result="shape"/>
</filter>
</defs>
</svg>
